<svg xmlns="http://www.w3.org/2000/svg" viewBox="0 0 128 128">
  <defs>
    <linearGradient id="g" x1="0" y1="0" x2="1" y2="1">
      <stop stop-color="#2f8cff"/>
      <stop offset="1" stop-color="#1357d5"/>
    </linearGradient>
  </defs>
  <rect width="128" height="128" rx="28" fill="#07131f"/>
  <path d="M64 13c-25 0-45 20-45 45 0 31 45 57 45 57s45-26 45-57c0-25-20-45-45-45z" fill="url(#g)"/>
  <path d="M39 47h8l5 27h32l8-20H50" fill="none" stroke="#fff" stroke-width="7" stroke-linecap="round" stroke-linejoin="round"/>
  <circle cx="58" cy="84" r="5" fill="#fff"/>
  <circle cx="82" cy="84" r="5" fill="#fff"/>
  <path d="M77 33l23 12-12 5 7 14-8 4-7-14-9 9z" fill="#2cf58a" stroke="#07131f" stroke-width="3" stroke-linejoin="round"/>
</svg>
